<svg version="1.2" xmlns="http://www.w3.org/2000/svg" xmlns:xlink="http://www.w3.org/1999/xlink" overflow="visible" preserveAspectRatio="none" viewBox="0 0 50.999998438809754 49.99999745558619" width="50.999998438809754" height="49.99999745558619"><g transform="translate(0, 0)"><g transform="translate(0.0000025000000021258018, 4.9960036108132044e-15) rotate(0)"><path d="M35.3022,21.14356c-0.02945,7.41576 -6.15488,13.41762 -13.72331,13.44647c-3.6517,0.08657 -7.15615,-1.29848 -9.71823,-3.83773c-2.65043,-2.51039 -4.12288,-6.00186 -4.03454,-9.60874c-0.0589,-3.57803 1.41356,-7.04064 4.03454,-9.52218c2.53263,-2.5681 6.06653,-4.01086 9.71823,-3.95315c3.68115,-0.08657 7.2445,1.35619 9.80657,3.95315c2.62098,2.48154 4.09344,5.94415 4.03454,9.52218v0zM50.99861,46.13207c0.02945,-1.00993 -0.41229,-1.991 -1.14852,-2.71238l-10.51335,-10.30127c2.50318,-3.49147 3.85784,-7.70431 3.82839,-11.97486c0,-2.8278 -0.55953,-5.62674 -1.70805,-8.2237c-2.14979,-5.10735 -6.27267,-9.14706 -11.48518,-11.25348c-5.35975,-2.22184 -11.42628,-2.22184 -16.78603,0c-5.2125,2.10642 -9.33539,6.14613 -11.48518,11.25348c-2.26759,5.25163 -2.26759,11.19577 0,16.4474c2.14979,5.10735 6.27267,9.14706 11.48518,11.25348c2.65043,1.12535 5.507,1.6736 8.39301,1.6736c4.35848,0.02886 8.62861,-1.26962 12.22141,-3.72231l10.51335,10.27241c0.70678,0.75023 1.70805,1.18306 2.76822,1.1542c2.14979,-0.02886 3.88729,-1.73131 3.91674,-3.86658v0z" style="stroke-width: 0; stroke-linecap: butt; stroke-linejoin: miter; fill: rgb(81, 125, 0);" vector-effect="non-scaling-stroke"/></g><defs><path id="path-162663212674719661" d="M35.3022,21.14356c-0.02945,7.41576 -6.15488,13.41762 -13.72331,13.44647c-3.6517,0.08657 -7.15615,-1.29848 -9.71823,-3.83773c-2.65043,-2.51039 -4.12288,-6.00186 -4.03454,-9.60874c-0.0589,-3.57803 1.41356,-7.04064 4.03454,-9.52218c2.53263,-2.5681 6.06653,-4.01086 9.71823,-3.95315c3.68115,-0.08657 7.2445,1.35619 9.80657,3.95315c2.62098,2.48154 4.09344,5.94415 4.03454,9.52218v0zM50.99861,46.13207c0.02945,-1.00993 -0.41229,-1.991 -1.14852,-2.71238l-10.51335,-10.30127c2.50318,-3.49147 3.85784,-7.70431 3.82839,-11.97486c0,-2.8278 -0.55953,-5.62674 -1.70805,-8.2237c-2.14979,-5.10735 -6.27267,-9.14706 -11.48518,-11.25348c-5.35975,-2.22184 -11.42628,-2.22184 -16.78603,0c-5.2125,2.10642 -9.33539,6.14613 -11.48518,11.25348c-2.26759,5.25163 -2.26759,11.19577 0,16.4474c2.14979,5.10735 6.27267,9.14706 11.48518,11.25348c2.65043,1.12535 5.507,1.6736 8.39301,1.6736c4.35848,0.02886 8.62861,-1.26962 12.22141,-3.72231l10.51335,10.27241c0.70678,0.75023 1.70805,1.18306 2.76822,1.1542c2.14979,-0.02886 3.88729,-1.73131 3.91674,-3.86658v0z" vector-effect="non-scaling-stroke"/></defs></g></svg>