<svg version="1.2" xmlns="http://www.w3.org/2000/svg" xmlns:xlink="http://www.w3.org/1999/xlink" overflow="visible" preserveAspectRatio="none" viewBox="0 0 1920 136" width="1920" height="136"><g transform="translate(0, 0)"><defs><path id="path-16509386823911665" d="M0 9.714285714285708 C0 9.714285714285708 165.95744680851075 30.18098402151555 403.40425531914946 23.591836734693864 C640.8510638297881 17.002689447872164 1067.999884473217 -25.692779259672346 1220.425531914894 -29.641025641025593 C1487.5245656345267 -36.55963029218842 1920.0000000000011 14.496124031007726 1920.0000000000011 14.496124031007726 C1920.0000000000011 14.496124031007726 1920.0000000000011 105.42635658914715 1920.0000000000011 105.42635658914715 C1920.0000000000011 105.42635658914715 0 105.42635658914715 0 105.42635658914715 C0 105.42635658914715 0 9.714285714285708 0 9.714285714285708 Z" vector-effect="non-scaling-stroke"/></defs><g transform="translate(0, 30.28563572675693)"><path d="M0 9.714285714285708 C0 9.714285714285708 165.95744680851075 30.18098402151555 403.40425531914946 23.591836734693864 C640.8510638297881 17.002689447872164 1067.999884473217 -25.692779259672346 1220.425531914894 -29.641025641025593 C1487.5245656345267 -36.55963029218842 1920.0000000000011 14.496124031007726 1920.0000000000011 14.496124031007726 C1920.0000000000011 14.496124031007726 1920.0000000000011 105.42635658914715 1920.0000000000011 105.42635658914715 C1920.0000000000011 105.42635658914715 0 105.42635658914715 0 105.42635658914715 C0 105.42635658914715 0 9.714285714285708 0 9.714285714285708 Z" style="stroke: rgb(140, 140, 140); stroke-width: 0; stroke-linecap: butt; stroke-linejoin: miter; fill: rgb(2, 29, 16);" vector-effect="non-scaling-stroke"/></g></g></svg>